<svg width="1600" height="900" viewBox="0 0 1600 900" fill="none" xmlns="http://www.w3.org/2000/svg">
  <defs>
    <linearGradient id="g0" x1="220" y1="110" x2="1380" y2="790" gradientUnits="userSpaceOnUse">
      <stop stop-color="#131314"/>
      <stop offset="0.55" stop-color="#1C1B1C"/>
      <stop offset="1" stop-color="#0E0F12"/>
    </linearGradient>
    <radialGradient id="glow" cx="0" cy="0" r="1" gradientUnits="userSpaceOnUse" gradientTransform="translate(980 220) rotate(105) scale(700 520)">
      <stop offset="0" stop-color="#00D2FF" stop-opacity="0.24"/>
      <stop offset="0.55" stop-color="#A5E7FF" stop-opacity="0.10"/>
      <stop offset="0.78" stop-color="#EDB1FF" stop-opacity="0.12"/>
      <stop offset="1" stop-color="#6E208C" stop-opacity="0"/>
    </radialGradient>
    <linearGradient id="rim" x1="430" y1="260" x2="1180" y2="680" gradientUnits="userSpaceOnUse">
      <stop stop-color="#00D2FF"/>
      <stop offset="0.55" stop-color="#A5E7FF"/>
      <stop offset="1" stop-color="#EDB1FF"/>
    </linearGradient>
    <filter id="blur18" x="-40%" y="-40%" width="180%" height="180%">
      <feGaussianBlur stdDeviation="18"/>
    </filter>
  </defs>

  <rect x="0" y="0" width="1600" height="900" rx="48" fill="url(#g0)"/>
  <rect x="0" y="0" width="1600" height="900" rx="48" fill="url(#glow)"/>

  <g opacity="0.7">
    <circle cx="240" cy="180" r="2" fill="#E7EEF2" fill-opacity="0.35"/>
    <circle cx="520" cy="140" r="1.6" fill="#E7EEF2" fill-opacity="0.25"/>
    <circle cx="1360" cy="220" r="1.8" fill="#E7EEF2" fill-opacity="0.25"/>
    <circle cx="1290" cy="560" r="1.3" fill="#E7EEF2" fill-opacity="0.18"/>
    <circle cx="330" cy="620" r="1.4" fill="#E7EEF2" fill-opacity="0.18"/>
  </g>

  <circle cx="830" cy="450" r="220" fill="none" stroke="url(#rim)" stroke-width="8" opacity="0.35" filter="url(#blur18)"/>
  <circle cx="830" cy="450" r="210" fill="none" stroke="url(#rim)" stroke-width="3" opacity="0.45"/>

  <rect x="260" y="250" width="1080" height="400" rx="36" fill="#353436" fill-opacity="0.20" stroke="#3C494E" stroke-opacity="0.18"/>
  <rect x="320" y="320" width="380" height="26" rx="13" fill="#E7EEF2" fill-opacity="0.10"/>
  <rect x="320" y="370" width="680" height="18" rx="9" fill="#BBC9CF" fill-opacity="0.10"/>
  <rect x="320" y="410" width="620" height="18" rx="9" fill="#BBC9CF" fill-opacity="0.08"/>
  <rect x="320" y="450" width="560" height="18" rx="9" fill="#BBC9CF" fill-opacity="0.06"/>

  <rect x="320" y="520" width="160" height="40" rx="20" fill="#00D2FF" fill-opacity="0.16"/>
  <rect x="500" y="520" width="160" height="40" rx="20" fill="#EDB1FF" fill-opacity="0.12"/>
</svg>
